<svg width="14" height="13" viewBox="0 0 14 13" fill="none" xmlns="http://www.w3.org/2000/svg">
<path d="M13.1085 4.51641L9.16385 3.93985L7.40049 0.344537C7.35233 0.2461 7.27309 0.166412 7.17521 0.117975C6.92974 -0.00390047 6.63144 0.097662 6.50871 0.344537L4.74535 3.93985L0.800701 4.51641C0.691947 4.53204 0.592515 4.5836 0.516388 4.66172C0.424354 4.75686 0.373639 4.88485 0.375387 5.01757C0.377135 5.15029 0.431203 5.27689 0.52571 5.36954L3.37971 8.16797L2.70544 12.1195C2.68963 12.2115 2.69974 12.306 2.73464 12.3924C2.76953 12.4789 2.82781 12.5537 2.90286 12.6086C2.97791 12.6634 3.06673 12.696 3.15925 12.7026C3.25178 12.7092 3.3443 12.6897 3.42632 12.6461L6.9546 10.7805L10.4829 12.6461C10.5792 12.6977 10.6911 12.7148 10.7983 12.6961C11.0686 12.6492 11.2504 12.3914 11.2038 12.1195L10.5295 8.16797L13.3835 5.36954C13.4612 5.29297 13.5124 5.19297 13.528 5.0836C13.5699 4.81016 13.3804 4.55704 13.1085 4.51641Z" fill="#FADB14"/>
</svg>
